<svg xmlns="http://www.w3.org/2000/svg" xmlns:xlink="http://www.w3.org/1999/xlink" width="500" zoomAndPan="magnify" viewBox="0 0 375 104.999996" height="140" preserveAspectRatio="xMidYMid meet" version="1.0"><defs><g/><clipPath id="id1"><path d="M 0 21 L 180.144531 21 L 180.144531 99.5625 L 0 99.5625 Z M 0 21 " clip-rule="nonzero"/></clipPath><clipPath id="id2"><path d="M 91 5.199219 L 169 5.199219 L 169 85 L 91 85 Z M 91 5.199219 " clip-rule="nonzero"/></clipPath><clipPath id="id3"><path d="M 11 5.199219 L 89 5.199219 L 89 85 L 11 85 Z M 11 5.199219 " clip-rule="nonzero"/></clipPath></defs><g clip-path="url(#id1)"><path fill="#dda83f" d="M 162.085938 21.269531 C 162.277344 25.757812 163.925781 32.910156 164.679688 37.5625 C 165.890625 45.140625 172.613281 83.109375 172.199219 85.214844 C 163.285156 85.964844 155.550781 85.480469 147.101562 83.367188 C 138.871094 81.308594 134.550781 78.96875 127.558594 75.925781 C 120.441406 72.824219 111.96875 72.210938 104.511719 75.277344 C 93.804688 79.683594 92.277344 85.371094 89.988281 87.585938 C 86.878906 84.84375 84.722656 79.5625 74.859375 75.445312 C 60.871094 69.613281 52.644531 76.484375 42.800781 80.257812 C 31.171875 84.710938 20.472656 86.277344 7.777344 85.234375 C 7.105469 81.832031 17.175781 31.5 17.949219 21.28125 L 14.671875 21.292969 L -0.0117188 90.796875 L 76.632812 90.796875 C 79.539062 102.558594 99.664062 102.300781 103.335938 90.796875 L 180.136719 90.730469 L 165.261719 21.292969 L 162.074219 21.292969 Z M 162.085938 21.269531 " fill-opacity="1" fill-rule="evenodd"/></g><g clip-path="url(#id2)"><path fill="#7c6947" d="M 155.753906 13.90625 L 155.777344 14.085938 C 124.101562 14.847656 126.535156 4.609375 110.441406 5.292969 C 104.199219 5.558594 100.664062 8 97.027344 10.730469 C 95.847656 11.613281 93.300781 14.34375 92.582031 15.730469 C 92.210938 16.460938 92.019531 17.355469 91.941406 18.339844 C 103.804688 10.550781 113.324219 8.726562 120.476562 12.867188 C 128.648438 17.890625 137.167969 20.265625 153.015625 19.929688 L 159.898438 65.40625 C 154.285156 67.34375 153.230469 70.195312 142.734375 69.925781 C 131.039062 69.636719 117.625 60.324219 102.300781 70.351562 C 97.757812 73.316406 92.570312 79.226562 91.335938 84.160156 C 94.839844 81.105469 96.890625 76.292969 105.367188 72.960938 C 112.425781 70.183594 119.699219 70.566406 127.0625 72.859375 C 133.71875 74.941406 138.59375 77.570312 145.875 79.25 C 151.410156 80.523438 163.265625 82.550781 168.425781 80.167969 C 168.898438 79.683594 168.417969 77.402344 168.246094 76.304688 C 168.011719 74.839844 167.800781 73.386719 167.585938 71.984375 L 160.761719 27.066406 C 159.527344 18.976562 159.367188 15.386719 158.875 13.984375 C 158.4375 12.734375 157.742188 13.257812 155.765625 13.90625 Z M 155.753906 13.90625 " fill-opacity="1" fill-rule="evenodd"/></g><g clip-path="url(#id3)"><path fill="#7c6947" d="M 24.546875 13.90625 L 24.527344 14.085938 C 56.214844 14.847656 53.765625 4.609375 69.863281 5.292969 C 76.09375 5.558594 79.640625 8 83.277344 10.730469 C 84.453125 11.613281 87.003906 14.34375 87.722656 15.730469 C 88.09375 16.460938 88.28125 17.355469 88.359375 18.339844 C 76.484375 10.550781 66.976562 8.726562 59.828125 12.867188 C 51.65625 17.890625 43.136719 20.265625 27.289062 19.929688 L 20.40625 65.40625 C 26.019531 67.34375 27.074219 70.195312 37.570312 69.925781 C 49.253906 69.636719 62.679688 60.324219 78 70.351562 C 82.535156 73.316406 87.734375 79.226562 88.96875 84.160156 C 85.464844 81.105469 83.410156 76.292969 74.9375 72.960938 C 67.875 70.183594 60.601562 70.566406 53.238281 72.859375 C 46.582031 74.941406 41.710938 77.570312 34.425781 79.25 C 28.890625 80.523438 17.039062 82.550781 11.875 80.167969 C 11.40625 79.683594 11.886719 77.402344 12.054688 76.304688 C 12.292969 74.839844 12.503906 73.386719 12.71875 71.984375 L 19.542969 27.066406 C 20.777344 18.976562 20.933594 15.386719 21.429688 13.984375 C 21.867188 12.734375 22.5625 13.257812 24.539062 13.90625 Z M 24.546875 13.90625 " fill-opacity="1" fill-rule="evenodd"/></g><g fill="#e1ad4e" fill-opacity="1"><g transform="translate(184.032794, 55.576979)"><g><path d="M 15.265625 0.40625 C 12.597656 0.40625 10.253906 -0.0351562 8.234375 -0.921875 C 6.222656 -1.804688 4.671875 -3.050781 3.578125 -4.65625 C 2.492188 -6.257812 1.953125 -8.140625 1.953125 -10.296875 L 1.953125 -11.171875 C 1.953125 -11.742188 2.238281 -12.03125 2.8125 -12.03125 L 8.1875 -12.03125 C 8.769531 -12.03125 9.0625 -11.8125 9.0625 -11.375 L 9.0625 -10.65625 C 9.0625 -9.289062 9.679688 -8.132812 10.921875 -7.1875 C 12.171875 -6.25 13.804688 -5.78125 15.828125 -5.78125 C 17.640625 -5.78125 18.976562 -6.164062 19.84375 -6.9375 C 20.71875 -7.707031 21.15625 -8.65625 21.15625 -9.78125 C 21.15625 -10.601562 20.878906 -11.296875 20.328125 -11.859375 C 19.785156 -12.421875 19.050781 -12.914062 18.125 -13.34375 C 17.207031 -13.769531 15.722656 -14.359375 13.671875 -15.109375 C 11.347656 -15.890625 9.398438 -16.691406 7.828125 -17.515625 C 6.265625 -18.335938 4.9375 -19.457031 3.84375 -20.875 C 2.75 -22.289062 2.203125 -24.039062 2.203125 -26.125 C 2.203125 -28.164062 2.726562 -29.953125 3.78125 -31.484375 C 4.84375 -33.023438 6.320312 -34.207031 8.21875 -35.03125 C 10.113281 -35.851562 12.273438 -36.265625 14.703125 -36.265625 C 17.296875 -36.265625 19.613281 -35.800781 21.65625 -34.875 C 23.707031 -33.957031 25.304688 -32.671875 26.453125 -31.015625 C 27.597656 -29.359375 28.171875 -27.4375 28.171875 -25.25 L 28.171875 -24.734375 C 28.171875 -24.160156 27.878906 -23.875 27.296875 -23.875 L 21.921875 -23.875 C 21.335938 -23.875 21.046875 -24.039062 21.046875 -24.375 L 21.046875 -24.890625 C 21.046875 -26.328125 20.457031 -27.546875 19.28125 -28.546875 C 18.101562 -29.554688 16.488281 -30.0625 14.4375 -30.0625 C 12.800781 -30.0625 11.539062 -29.71875 10.65625 -29.03125 C 9.769531 -28.351562 9.328125 -27.414062 9.328125 -26.21875 C 9.328125 -25.363281 9.582031 -24.644531 10.09375 -24.0625 C 10.601562 -23.488281 11.378906 -22.960938 12.421875 -22.484375 C 13.460938 -22.003906 15.078125 -21.390625 17.265625 -20.640625 C 19.648438 -19.753906 21.539062 -18.976562 22.9375 -18.3125 C 24.34375 -17.644531 25.597656 -16.628906 26.703125 -15.265625 C 27.816406 -13.898438 28.375 -12.140625 28.375 -9.984375 C 28.375 -7.898438 27.832031 -6.070312 26.75 -4.5 C 25.675781 -2.9375 24.160156 -1.726562 22.203125 -0.875 C 20.242188 -0.0195312 17.929688 0.40625 15.265625 0.40625 Z M 15.265625 0.40625 "/></g></g></g><g fill="#e1ad4e" fill-opacity="1"><g transform="translate(214.349633, 55.576979)"><g><path d="M 14.234375 0.40625 C 11.503906 0.40625 9.140625 -0.273438 7.140625 -1.640625 C 5.148438 -3.003906 3.726562 -4.878906 2.875 -7.265625 C 2.289062 -8.972656 2 -10.988281 2 -13.3125 C 2 -15.601562 2.289062 -17.585938 2.875 -19.265625 C 3.6875 -21.578125 5.097656 -23.398438 7.109375 -24.734375 C 9.128906 -26.066406 11.503906 -26.734375 14.234375 -26.734375 C 16.972656 -26.734375 19.375 -26.050781 21.4375 -24.6875 C 23.5 -23.320312 24.875 -21.597656 25.5625 -19.515625 C 25.757812 -19.035156 25.894531 -18.503906 25.96875 -17.921875 L 25.96875 -17.828125 C 25.96875 -17.378906 25.710938 -17.101562 25.203125 -17 L 19.828125 -16.1875 L 19.5625 -16.140625 C 19.15625 -16.140625 18.914062 -16.34375 18.84375 -16.75 L 18.6875 -17.46875 C 18.457031 -18.351562 17.929688 -19.082031 17.109375 -19.65625 C 16.285156 -20.238281 15.3125 -20.53125 14.1875 -20.53125 C 13.09375 -20.53125 12.171875 -20.257812 11.421875 -19.71875 C 10.671875 -19.175781 10.140625 -18.425781 9.828125 -17.46875 C 9.453125 -16.4375 9.265625 -15.035156 9.265625 -13.265625 C 9.265625 -11.492188 9.4375 -10.09375 9.78125 -9.0625 C 10.09375 -8.039062 10.628906 -7.238281 11.390625 -6.65625 C 12.160156 -6.070312 13.09375 -5.78125 14.1875 -5.78125 C 15.25 -5.78125 16.179688 -6.0625 16.984375 -6.625 C 17.785156 -7.195312 18.335938 -7.957031 18.640625 -8.90625 L 18.6875 -9.171875 C 18.726562 -9.304688 18.847656 -9.46875 19.046875 -9.65625 C 19.253906 -9.84375 19.476562 -9.921875 19.71875 -9.890625 L 25.09375 -9.0625 C 25.363281 -9 25.554688 -8.878906 25.671875 -8.703125 C 25.796875 -8.535156 25.84375 -8.332031 25.8125 -8.09375 C 25.75 -7.539062 25.664062 -7.148438 25.5625 -6.921875 C 24.84375 -4.628906 23.445312 -2.832031 21.375 -1.53125 C 19.3125 -0.238281 16.929688 0.40625 14.234375 0.40625 Z M 14.234375 0.40625 "/></g></g></g><g fill="#e1ad4e" fill-opacity="1"><g transform="translate(241.849875, 55.576979)"><g><path d="M 6.65625 -28.84375 C 5.363281 -28.84375 4.304688 -29.242188 3.484375 -30.046875 C 2.660156 -30.847656 2.25 -31.878906 2.25 -33.140625 C 2.25 -34.398438 2.660156 -35.429688 3.484375 -36.234375 C 4.304688 -37.035156 5.363281 -37.4375 6.65625 -37.4375 C 7.988281 -37.4375 9.054688 -37.039062 9.859375 -36.25 C 10.660156 -35.46875 11.0625 -34.429688 11.0625 -33.140625 C 11.0625 -31.835938 10.660156 -30.796875 9.859375 -30.015625 C 9.054688 -29.234375 7.988281 -28.84375 6.65625 -28.84375 Z M 3.9375 0 C 3.363281 0 3.078125 -0.289062 3.078125 -0.875 L 3.078125 -25.453125 C 3.078125 -26.035156 3.363281 -26.328125 3.9375 -26.328125 L 9.421875 -26.328125 C 10.003906 -26.328125 10.296875 -26.035156 10.296875 -25.453125 L 10.296875 -0.875 C 10.296875 -0.289062 10.003906 0 9.421875 0 Z M 3.9375 0 "/></g></g></g><g fill="#e1ad4e" fill-opacity="1"><g transform="translate(255.164709, 55.576979)"><g><path d="M 15.359375 -5.6875 C 17.617188 -5.789062 19.34375 -6.578125 20.53125 -8.046875 C 20.738281 -8.285156 20.960938 -8.40625 21.203125 -8.40625 C 21.410156 -8.40625 21.597656 -8.316406 21.765625 -8.140625 L 24.6875 -5.328125 C 24.894531 -5.117188 25 -4.914062 25 -4.71875 C 25 -4.476562 24.929688 -4.269531 24.796875 -4.09375 C 23.660156 -2.695312 22.210938 -1.597656 20.453125 -0.796875 C 18.703125 0.00390625 16.785156 0.40625 14.703125 0.40625 C 11.554688 0.40625 8.953125 -0.394531 6.890625 -2 C 4.828125 -3.601562 3.4375 -5.804688 2.71875 -8.609375 C 2.300781 -10.109375 2.09375 -11.695312 2.09375 -13.375 C 2.09375 -15.351562 2.28125 -17.023438 2.65625 -18.390625 C 3.34375 -20.910156 4.71875 -22.9375 6.78125 -24.46875 C 8.851562 -26.007812 11.304688 -26.78125 14.140625 -26.78125 C 17.484375 -26.78125 20.132812 -25.789062 22.09375 -23.8125 C 24.0625 -21.832031 25.335938 -19.050781 25.921875 -15.46875 C 26.054688 -14.34375 26.15625 -13.097656 26.21875 -11.734375 C 26.21875 -11.148438 25.929688 -10.859375 25.359375 -10.859375 L 9.625 -10.859375 C 9.425781 -10.859375 9.328125 -10.753906 9.328125 -10.546875 C 9.421875 -9.828125 9.539062 -9.300781 9.6875 -8.96875 C 10.019531 -7.90625 10.691406 -7.09375 11.703125 -6.53125 C 12.710938 -5.96875 13.929688 -5.6875 15.359375 -5.6875 Z M 14.03125 -20.53125 C 12.9375 -20.53125 12.019531 -20.265625 11.28125 -19.734375 C 10.550781 -19.210938 10.050781 -18.472656 9.78125 -17.515625 C 9.613281 -16.867188 9.507812 -16.441406 9.46875 -16.234375 C 9.4375 -16.023438 9.523438 -15.921875 9.734375 -15.921875 L 18.4375 -15.921875 C 18.601562 -15.921875 18.6875 -15.992188 18.6875 -16.140625 C 18.6875 -16.515625 18.617188 -16.90625 18.484375 -17.3125 C 18.179688 -18.300781 17.65625 -19.082031 16.90625 -19.65625 C 16.15625 -20.238281 15.195312 -20.53125 14.03125 -20.53125 Z M 14.03125 -20.53125 "/></g></g></g><g fill="#e1ad4e" fill-opacity="1"><g transform="translate(283.177062, 55.576979)"><g><path d="M 16.390625 -26.734375 C 19.117188 -26.734375 21.316406 -25.894531 22.984375 -24.21875 C 24.660156 -22.550781 25.5 -20.285156 25.5 -17.421875 L 25.5 -0.875 C 25.5 -0.289062 25.210938 0 24.640625 0 L 19.15625 0 C 18.570312 0 18.28125 -0.289062 18.28125 -0.875 L 18.28125 -15.921875 C 18.28125 -17.296875 17.90625 -18.40625 17.15625 -19.25 C 16.40625 -20.101562 15.398438 -20.53125 14.140625 -20.53125 C 12.867188 -20.53125 11.84375 -20.101562 11.0625 -19.25 C 10.28125 -18.40625 9.890625 -17.296875 9.890625 -15.921875 L 9.890625 -0.875 C 9.890625 -0.289062 9.597656 0 9.015625 0 L 3.53125 0 C 2.945312 0 2.65625 -0.289062 2.65625 -0.875 L 2.65625 -25.453125 C 2.65625 -26.035156 2.945312 -26.328125 3.53125 -26.328125 L 9.015625 -26.328125 C 9.597656 -26.328125 9.890625 -26.035156 9.890625 -25.453125 L 9.890625 -24.015625 C 9.890625 -23.878906 9.921875 -23.796875 9.984375 -23.765625 C 10.054688 -23.734375 10.125 -23.769531 10.1875 -23.875 C 11.59375 -25.78125 13.660156 -26.734375 16.390625 -26.734375 Z M 16.390625 -26.734375 "/></g></g></g><g fill="#e1ad4e" fill-opacity="1"><g transform="translate(311.189416, 55.576979)"><g><path d="M 17.765625 -21.40625 C 17.765625 -20.820312 17.476562 -20.53125 16.90625 -20.53125 L 12.296875 -20.53125 C 12.085938 -20.53125 11.984375 -20.429688 11.984375 -20.234375 L 11.984375 -9.625 C 11.984375 -8.5 12.210938 -7.671875 12.671875 -7.140625 C 13.140625 -6.609375 13.882812 -6.34375 14.90625 -6.34375 L 16.34375 -6.34375 C 16.914062 -6.34375 17.203125 -6.054688 17.203125 -5.484375 L 17.203125 -1.078125 C 17.203125 -0.523438 16.914062 -0.21875 16.34375 -0.15625 C 15.039062 -0.0820312 14.097656 -0.046875 13.515625 -0.046875 C 10.679688 -0.046875 8.566406 -0.523438 7.171875 -1.484375 C 5.773438 -2.441406 5.054688 -4.21875 5.015625 -6.8125 L 5.015625 -20.234375 C 5.015625 -20.429688 4.914062 -20.53125 4.71875 -20.53125 L 2.09375 -20.53125 C 1.519531 -20.53125 1.234375 -20.820312 1.234375 -21.40625 L 1.234375 -25.453125 C 1.234375 -26.035156 1.519531 -26.328125 2.09375 -26.328125 L 4.71875 -26.328125 C 4.914062 -26.328125 5.015625 -26.429688 5.015625 -26.640625 L 5.015625 -32.421875 C 5.015625 -33.003906 5.304688 -33.296875 5.890625 -33.296875 L 11.109375 -33.296875 C 11.691406 -33.296875 11.984375 -33.003906 11.984375 -32.421875 L 11.984375 -26.640625 C 11.984375 -26.429688 12.085938 -26.328125 12.296875 -26.328125 L 16.90625 -26.328125 C 17.476562 -26.328125 17.765625 -26.035156 17.765625 -25.453125 Z M 17.765625 -21.40625 "/></g></g></g><g fill="#e1ad4e" fill-opacity="1"><g transform="translate(330.649555, 55.576979)"><g><path d="M 6.65625 -28.84375 C 5.363281 -28.84375 4.304688 -29.242188 3.484375 -30.046875 C 2.660156 -30.847656 2.25 -31.878906 2.25 -33.140625 C 2.25 -34.398438 2.660156 -35.429688 3.484375 -36.234375 C 4.304688 -37.035156 5.363281 -37.4375 6.65625 -37.4375 C 7.988281 -37.4375 9.054688 -37.039062 9.859375 -36.25 C 10.660156 -35.46875 11.0625 -34.429688 11.0625 -33.140625 C 11.0625 -31.835938 10.660156 -30.796875 9.859375 -30.015625 C 9.054688 -29.234375 7.988281 -28.84375 6.65625 -28.84375 Z M 3.9375 0 C 3.363281 0 3.078125 -0.289062 3.078125 -0.875 L 3.078125 -25.453125 C 3.078125 -26.035156 3.363281 -26.328125 3.9375 -26.328125 L 9.421875 -26.328125 C 10.003906 -26.328125 10.296875 -26.035156 10.296875 -25.453125 L 10.296875 -0.875 C 10.296875 -0.289062 10.003906 0 9.421875 0 Z M 3.9375 0 "/></g></g></g><g fill="#e1ad4e" fill-opacity="1"><g transform="translate(343.964389, 55.576979)"><g><path d="M 13.21875 -26.734375 C 15.4375 -26.734375 17.414062 -26.347656 19.15625 -25.578125 C 20.894531 -24.816406 22.25 -23.769531 23.21875 -22.4375 C 24.195312 -21.101562 24.6875 -19.617188 24.6875 -17.984375 L 24.6875 -0.875 C 24.6875 -0.289062 24.394531 0 23.8125 0 L 18.34375 0 C 17.757812 0 17.46875 -0.289062 17.46875 -0.875 L 17.46875 -2.09375 C 17.46875 -2.238281 17.429688 -2.316406 17.359375 -2.328125 C 17.296875 -2.347656 17.210938 -2.304688 17.109375 -2.203125 C 15.535156 -0.460938 13.195312 0.40625 10.09375 0.40625 C 7.457031 0.40625 5.335938 -0.238281 3.734375 -1.53125 C 2.128906 -2.832031 1.328125 -4.742188 1.328125 -7.265625 C 1.328125 -9.898438 2.25 -11.941406 4.09375 -13.390625 C 5.9375 -14.847656 8.566406 -15.578125 11.984375 -15.578125 L 17.15625 -15.578125 C 17.363281 -15.578125 17.46875 -15.675781 17.46875 -15.875 L 17.46875 -16.953125 C 17.46875 -18.078125 17.113281 -18.953125 16.40625 -19.578125 C 15.707031 -20.210938 14.695312 -20.53125 13.375 -20.53125 C 12.34375 -20.53125 11.492188 -20.359375 10.828125 -20.015625 C 10.160156 -19.679688 9.707031 -19.207031 9.46875 -18.59375 C 9.269531 -18.113281 8.929688 -17.890625 8.453125 -17.921875 L 2.765625 -18.640625 C 2.492188 -18.671875 2.28125 -18.742188 2.125 -18.859375 C 1.96875 -18.984375 1.910156 -19.148438 1.953125 -19.359375 C 2.117188 -20.753906 2.703125 -22.015625 3.703125 -23.140625 C 4.710938 -24.273438 6.046875 -25.15625 7.703125 -25.78125 C 9.359375 -26.414062 11.195312 -26.734375 13.21875 -26.734375 Z M 12.1875 -4.96875 C 13.65625 -4.96875 14.898438 -5.359375 15.921875 -6.140625 C 16.953125 -6.929688 17.46875 -7.941406 17.46875 -9.171875 L 17.46875 -10.953125 C 17.46875 -11.160156 17.363281 -11.265625 17.15625 -11.265625 L 13.515625 -11.265625 C 11.984375 -11.265625 10.769531 -10.972656 9.875 -10.390625 C 8.988281 -9.816406 8.546875 -9 8.546875 -7.9375 C 8.546875 -7.019531 8.878906 -6.296875 9.546875 -5.765625 C 10.210938 -5.234375 11.09375 -4.96875 12.1875 -4.96875 Z M 12.1875 -4.96875 "/></g></g></g><g fill="#94959a" fill-opacity="1"><g transform="translate(189.624176, 93.865261)"><g><path d="M 2.46875 0 C 2.175781 0 2.03125 -0.144531 2.03125 -0.4375 L 2.03125 -18.953125 C 2.03125 -19.253906 2.175781 -19.40625 2.46875 -19.40625 L 4.796875 -19.40625 C 5.085938 -19.40625 5.234375 -19.253906 5.234375 -18.953125 L 5.234375 -2.9375 C 5.234375 -2.820312 5.289062 -2.765625 5.40625 -2.765625 L 14.546875 -2.765625 C 14.847656 -2.765625 15 -2.617188 15 -2.328125 L 15 -0.4375 C 15 -0.144531 14.847656 0 14.546875 0 Z M 2.46875 0 "/></g></g></g><g fill="#94959a" fill-opacity="1"><g transform="translate(206.828517, 93.865261)"><g><path d="M 3.546875 -15.9375 C 2.941406 -15.9375 2.441406 -16.125 2.046875 -16.5 C 1.660156 -16.882812 1.46875 -17.375 1.46875 -17.96875 C 1.46875 -18.550781 1.660156 -19.023438 2.046875 -19.390625 C 2.441406 -19.765625 2.941406 -19.953125 3.546875 -19.953125 C 4.160156 -19.953125 4.65625 -19.765625 5.03125 -19.390625 C 5.40625 -19.023438 5.59375 -18.550781 5.59375 -17.96875 C 5.59375 -17.375 5.40625 -16.882812 5.03125 -16.5 C 4.65625 -16.125 4.160156 -15.9375 3.546875 -15.9375 Z M 2.390625 0 C 2.085938 0 1.9375 -0.144531 1.9375 -0.4375 L 1.9375 -13.71875 C 1.9375 -14.019531 2.085938 -14.171875 2.390625 -14.171875 L 4.71875 -14.171875 C 5.007812 -14.171875 5.15625 -14.019531 5.15625 -13.71875 L 5.15625 -0.4375 C 5.15625 -0.144531 5.007812 0 4.71875 0 Z M 2.390625 0 "/></g></g></g><g fill="#94959a" fill-opacity="1"><g transform="translate(215.278678, 93.865261)"><g><path d="M 13.671875 -10.5 C 13.984375 -9.5625 14.140625 -8.4375 14.140625 -7.125 C 14.140625 -5.851562 13.972656 -4.695312 13.640625 -3.65625 C 13.234375 -2.457031 12.566406 -1.507812 11.640625 -0.8125 C 10.710938 -0.125 9.601562 0.21875 8.3125 0.21875 C 7 0.21875 5.945312 -0.257812 5.15625 -1.21875 C 5.113281 -1.289062 5.070312 -1.316406 5.03125 -1.296875 C 4.988281 -1.285156 4.96875 -1.242188 4.96875 -1.171875 L 4.96875 -0.4375 C 4.96875 -0.144531 4.816406 0 4.515625 0 L 2.1875 0 C 1.894531 0 1.75 -0.144531 1.75 -0.4375 L 1.75 -18.953125 C 1.75 -19.253906 1.894531 -19.40625 2.1875 -19.40625 L 4.515625 -19.40625 C 4.816406 -19.40625 4.96875 -19.253906 4.96875 -18.953125 L 4.96875 -13.078125 C 4.96875 -13.003906 4.988281 -12.960938 5.03125 -12.953125 C 5.070312 -12.941406 5.113281 -12.96875 5.15625 -13.03125 C 5.96875 -13.9375 7.019531 -14.390625 8.3125 -14.390625 C 9.664062 -14.390625 10.796875 -14.046875 11.703125 -13.359375 C 12.609375 -12.671875 13.265625 -11.71875 13.671875 -10.5 Z M 10.140625 -3.90625 C 10.585938 -4.6875 10.8125 -5.738281 10.8125 -7.0625 C 10.8125 -8.507812 10.539062 -9.640625 10 -10.453125 C 9.488281 -11.222656 8.75 -11.609375 7.78125 -11.609375 C 6.894531 -11.609375 6.203125 -11.203125 5.703125 -10.390625 C 5.242188 -9.640625 5.015625 -8.539062 5.015625 -7.09375 C 5.015625 -5.675781 5.226562 -4.601562 5.65625 -3.875 C 6.175781 -3.007812 6.894531 -2.578125 7.8125 -2.578125 C 8.882812 -2.578125 9.660156 -3.019531 10.140625 -3.90625 Z M 10.140625 -3.90625 "/></g></g></g><g fill="#94959a" fill-opacity="1"><g transform="translate(231.928963, 93.865261)"><g><path d="M 8.3125 -14.328125 C 8.851562 -14.328125 9.34375 -14.226562 9.78125 -14.03125 C 10.007812 -13.914062 10.09375 -13.726562 10.03125 -13.46875 L 9.59375 -11.171875 C 9.570312 -11.023438 9.519531 -10.929688 9.4375 -10.890625 C 9.351562 -10.859375 9.226562 -10.859375 9.0625 -10.890625 C 8.84375 -10.960938 8.546875 -11 8.171875 -11 C 7.953125 -11 7.78125 -10.992188 7.65625 -10.984375 C 6.875 -10.941406 6.222656 -10.664062 5.703125 -10.15625 C 5.191406 -9.644531 4.9375 -8.984375 4.9375 -8.171875 L 4.9375 -0.4375 C 4.9375 -0.144531 4.785156 0 4.484375 0 L 2.15625 0 C 1.863281 0 1.71875 -0.144531 1.71875 -0.4375 L 1.71875 -13.71875 C 1.71875 -14.019531 1.863281 -14.171875 2.15625 -14.171875 L 4.484375 -14.171875 C 4.785156 -14.171875 4.9375 -14.019531 4.9375 -13.71875 L 4.9375 -12.640625 C 4.9375 -12.566406 4.953125 -12.519531 4.984375 -12.5 C 5.023438 -12.476562 5.0625 -12.503906 5.09375 -12.578125 C 5.875 -13.742188 6.945312 -14.328125 8.3125 -14.328125 Z M 8.3125 -14.328125 "/></g></g></g><g fill="#94959a" fill-opacity="1"><g transform="translate(243.731202, 93.865261)"><g><path d="M 7.125 -14.390625 C 8.289062 -14.390625 9.320312 -14.1875 10.21875 -13.78125 C 11.113281 -13.375 11.800781 -12.8125 12.28125 -12.09375 C 12.757812 -11.382812 13 -10.578125 13 -9.671875 L 13 -0.4375 C 13 -0.144531 12.851562 0 12.5625 0 L 10.234375 0 C 9.929688 0 9.78125 -0.144531 9.78125 -0.4375 L 9.78125 -1.140625 C 9.78125 -1.210938 9.757812 -1.253906 9.71875 -1.265625 C 9.6875 -1.273438 9.644531 -1.257812 9.59375 -1.21875 C 8.59375 -0.257812 7.257812 0.21875 5.59375 0.21875 C 4.226562 0.21875 3.109375 -0.128906 2.234375 -0.828125 C 1.359375 -1.535156 0.921875 -2.582031 0.921875 -3.96875 C 0.921875 -5.40625 1.421875 -6.523438 2.421875 -7.328125 C 3.429688 -8.128906 4.851562 -8.53125 6.6875 -8.53125 L 9.625 -8.53125 C 9.726562 -8.53125 9.78125 -8.585938 9.78125 -8.703125 L 9.78125 -9.34375 C 9.78125 -10.0625 9.5625 -10.617188 9.125 -11.015625 C 8.695312 -11.410156 8.054688 -11.609375 7.203125 -11.609375 C 6.554688 -11.609375 6.019531 -11.492188 5.59375 -11.265625 C 5.175781 -11.035156 4.890625 -10.71875 4.734375 -10.3125 C 4.660156 -10.050781 4.492188 -9.929688 4.234375 -9.953125 L 1.75 -10.25 C 1.601562 -10.269531 1.488281 -10.3125 1.40625 -10.375 C 1.332031 -10.445312 1.304688 -10.523438 1.328125 -10.609375 C 1.492188 -11.722656 2.109375 -12.628906 3.171875 -13.328125 C 4.234375 -14.035156 5.550781 -14.390625 7.125 -14.390625 Z M 6.484375 -2.328125 C 7.390625 -2.328125 8.164062 -2.566406 8.8125 -3.046875 C 9.457031 -3.523438 9.78125 -4.132812 9.78125 -4.875 L 9.78125 -6.15625 C 9.78125 -6.257812 9.726562 -6.3125 9.625 -6.3125 L 7.3125 -6.3125 C 6.332031 -6.3125 5.554688 -6.128906 4.984375 -5.765625 C 4.410156 -5.398438 4.125 -4.875 4.125 -4.1875 C 4.125 -3.59375 4.34375 -3.132812 4.78125 -2.8125 C 5.226562 -2.488281 5.796875 -2.328125 6.484375 -2.328125 Z M 6.484375 -2.328125 "/></g></g></g><g fill="#94959a" fill-opacity="1"><g transform="translate(259.578093, 93.865261)"><g><path d="M 8.3125 -14.328125 C 8.851562 -14.328125 9.34375 -14.226562 9.78125 -14.03125 C 10.007812 -13.914062 10.09375 -13.726562 10.03125 -13.46875 L 9.59375 -11.171875 C 9.570312 -11.023438 9.519531 -10.929688 9.4375 -10.890625 C 9.351562 -10.859375 9.226562 -10.859375 9.0625 -10.890625 C 8.84375 -10.960938 8.546875 -11 8.171875 -11 C 7.953125 -11 7.78125 -10.992188 7.65625 -10.984375 C 6.875 -10.941406 6.222656 -10.664062 5.703125 -10.15625 C 5.191406 -9.644531 4.9375 -8.984375 4.9375 -8.171875 L 4.9375 -0.4375 C 4.9375 -0.144531 4.785156 0 4.484375 0 L 2.15625 0 C 1.863281 0 1.71875 -0.144531 1.71875 -0.4375 L 1.71875 -13.71875 C 1.71875 -14.019531 1.863281 -14.171875 2.15625 -14.171875 L 4.484375 -14.171875 C 4.785156 -14.171875 4.9375 -14.019531 4.9375 -13.71875 L 4.9375 -12.640625 C 4.9375 -12.566406 4.953125 -12.519531 4.984375 -12.5 C 5.023438 -12.476562 5.0625 -12.503906 5.09375 -12.578125 C 5.875 -13.742188 6.945312 -14.328125 8.3125 -14.328125 Z M 8.3125 -14.328125 "/></g></g></g><g fill="#94959a" fill-opacity="1"><g transform="translate(271.380332, 93.865261)"><g><path d="M 1.4375 5.515625 C 1.3125 5.515625 1.25 5.367188 1.25 5.078125 L 1.25 3.296875 C 1.25 3.003906 1.3125 2.859375 1.4375 2.859375 L 1.609375 2.859375 C 2.367188 2.859375 2.957031 2.785156 3.375 2.640625 C 3.800781 2.503906 4.148438 2.242188 4.421875 1.859375 C 4.691406 1.472656 4.9375 0.890625 5.15625 0.109375 C 5.195312 0.015625 5.195312 -0.0546875 5.15625 -0.109375 L 0.640625 -13.671875 C 0.617188 -13.722656 0.609375 -13.785156 0.609375 -13.859375 C 0.609375 -14.066406 0.738281 -14.171875 1 -14.171875 L 3.5 -14.171875 C 3.75 -14.171875 3.910156 -14.046875 3.984375 -13.796875 L 6.703125 -4.625 C 6.742188 -4.550781 6.785156 -4.515625 6.828125 -4.515625 C 6.878906 -4.515625 6.914062 -4.550781 6.9375 -4.625 L 9.5625 -13.796875 C 9.632812 -14.046875 9.800781 -14.171875 10.0625 -14.171875 L 12.5625 -14.171875 C 12.726562 -14.171875 12.84375 -14.128906 12.90625 -14.046875 C 12.96875 -13.960938 12.972656 -13.835938 12.921875 -13.671875 L 8.0625 0.78125 C 7.601562 2.09375 7.148438 3.070312 6.703125 3.71875 C 6.265625 4.363281 5.660156 4.820312 4.890625 5.09375 C 4.117188 5.375 3.035156 5.515625 1.640625 5.515625 Z M 1.4375 5.515625 "/></g></g></g></svg>