<svg xmlns="http://www.w3.org/2000/svg" xmlns:xlink="http://www.w3.org/1999/xlink" width="500" zoomAndPan="magnify" viewBox="0 0 375 374.999991" height="500" preserveAspectRatio="xMidYMid meet" version="1.0"><defs><g/><clipPath id="id1"><path d="M 14.914062 67 L 359.914062 67 L 359.914062 217.609375 L 14.914062 217.609375 Z M 14.914062 67 " clip-rule="nonzero"/></clipPath><clipPath id="id2"><path d="M 189 36.109375 L 338 36.109375 L 338 188 L 189 188 Z M 189 36.109375 " clip-rule="nonzero"/></clipPath><clipPath id="id3"><path d="M 37 36.109375 L 186 36.109375 L 186 188 L 37 188 Z M 37 36.109375 " clip-rule="nonzero"/></clipPath></defs><rect x="-37.5" width="450" fill="#ffffff" y="-37.499999" height="449.999989" fill-opacity="1"/><rect x="-37.5" width="450" fill="#ffffff" y="-37.499999" height="449.999989" fill-opacity="1"/><rect x="-37.5" width="450" fill="#ffffff" y="-37.499999" height="449.999989" fill-opacity="1"/><rect x="-37.5" width="450" fill="#ffffff" y="-37.499999" height="449.999989" fill-opacity="1"/><g clip-path="url(#id1)"><path fill="#dda83f" d="M 325.324219 67.027344 C 325.691406 75.65625 328.851562 89.410156 330.289062 98.363281 C 332.613281 112.933594 345.488281 185.957031 344.695312 190.003906 C 327.625 191.445312 312.8125 190.519531 296.628906 186.453125 C 280.871094 182.492188 272.59375 177.996094 259.203125 172.140625 C 245.574219 166.179688 229.34375 164.996094 215.070312 170.894531 C 194.5625 179.371094 191.636719 190.304688 187.253906 194.566406 C 181.296875 189.292969 177.171875 179.136719 158.273438 171.214844 C 131.488281 160.003906 115.734375 173.21875 96.878906 180.46875 C 74.609375 189.035156 54.125 192.050781 29.808594 190.046875 C 28.519531 183.503906 47.804688 86.699219 49.285156 67.046875 L 43.007812 67.070312 L 14.890625 200.742188 L 161.671875 200.742188 C 167.238281 223.363281 205.78125 222.867188 212.8125 200.742188 L 359.890625 200.613281 L 331.410156 67.070312 L 325.304688 67.070312 Z M 325.324219 67.027344 " fill-opacity="1" fill-rule="evenodd"/></g><g clip-path="url(#id2)"><path fill="#7c6947" d="M 313.199219 52.863281 L 313.242188 53.210938 C 252.582031 54.671875 257.246094 34.980469 226.417969 36.292969 C 214.46875 36.808594 207.695312 41.5 200.730469 46.753906 C 198.472656 48.453125 193.59375 53.703125 192.21875 56.375 C 191.507812 57.773438 191.144531 59.492188 190.992188 61.386719 C 213.714844 46.410156 231.945312 42.902344 245.636719 50.863281 C 261.285156 60.527344 277.601562 65.089844 307.957031 64.445312 L 321.132812 151.910156 C 310.386719 155.632812 308.363281 161.121094 288.265625 160.605469 C 265.867188 160.046875 240.175781 142.140625 210.832031 161.421875 C 202.128906 167.125 192.195312 178.488281 189.832031 187.980469 C 196.539062 182.105469 200.472656 172.851562 216.703125 166.4375 C 230.222656 161.101562 244.152344 161.832031 258.253906 166.242188 C 271.003906 170.246094 280.332031 175.304688 294.285156 178.53125 C 304.882812 180.988281 327.582031 184.882812 337.472656 180.296875 C 338.375 179.371094 337.449219 174.980469 337.125 172.871094 C 336.675781 170.054688 336.265625 167.253906 335.859375 164.566406 L 322.789062 78.175781 C 320.425781 62.613281 320.121094 55.707031 319.175781 53.015625 C 318.339844 50.605469 317.007812 51.617188 313.222656 52.863281 Z M 313.199219 52.863281 " fill-opacity="1" fill-rule="evenodd"/></g><g clip-path="url(#id3)"><path fill="#7c6947" d="M 61.925781 52.863281 L 61.882812 53.210938 C 122.570312 54.671875 117.882812 34.980469 148.707031 36.292969 C 160.640625 36.808594 167.433594 41.5 174.398438 46.753906 C 176.652344 48.453125 181.535156 53.703125 182.910156 56.375 C 183.617188 57.773438 183.984375 59.492188 184.136719 61.386719 C 161.390625 46.410156 143.183594 42.902344 129.492188 50.863281 C 113.839844 60.527344 97.523438 65.089844 67.171875 64.445312 L 53.996094 151.910156 C 64.742188 155.632812 66.761719 161.121094 86.863281 160.605469 C 109.242188 160.046875 134.949219 142.140625 164.292969 161.421875 C 172.976562 167.125 182.929688 178.488281 185.296875 187.980469 C 178.589844 182.105469 174.65625 172.851562 158.425781 166.4375 C 144.902344 161.101562 130.972656 161.832031 116.871094 166.242188 C 104.125 170.246094 94.792969 175.304688 80.84375 178.53125 C 70.246094 180.988281 47.546875 184.882812 37.65625 180.296875 C 36.753906 179.371094 37.679688 174.980469 38 172.871094 C 38.453125 170.054688 38.859375 167.253906 39.269531 164.566406 L 52.339844 78.175781 C 54.703125 62.613281 55.003906 55.707031 55.949219 53.015625 C 56.789062 50.605469 58.121094 51.617188 61.90625 52.863281 Z M 61.925781 52.863281 " fill-opacity="1" fill-rule="evenodd"/></g><g fill="#e1ad4e" fill-opacity="1"><g transform="translate(80.532728, 275.123887)"><g><path d="M 17.46875 0.46875 C 14.414062 0.46875 11.738281 -0.0351562 9.4375 -1.046875 C 7.132812 -2.066406 5.359375 -3.492188 4.109375 -5.328125 C 2.859375 -7.171875 2.234375 -9.320312 2.234375 -11.78125 L 2.234375 -12.78125 C 2.234375 -13.4375 2.5625 -13.765625 3.21875 -13.765625 L 9.375 -13.765625 C 10.039062 -13.765625 10.375 -13.515625 10.375 -13.015625 L 10.375 -12.1875 C 10.375 -10.625 11.085938 -9.304688 12.515625 -8.234375 C 13.941406 -7.160156 15.804688 -6.625 18.109375 -6.625 C 20.179688 -6.625 21.710938 -7.0625 22.703125 -7.9375 C 23.703125 -8.820312 24.203125 -9.90625 24.203125 -11.1875 C 24.203125 -12.125 23.890625 -12.914062 23.265625 -13.5625 C 22.640625 -14.207031 21.800781 -14.773438 20.75 -15.265625 C 19.695312 -15.753906 18 -16.429688 15.65625 -17.296875 C 12.988281 -18.191406 10.753906 -19.109375 8.953125 -20.046875 C 7.160156 -20.984375 5.640625 -22.257812 4.390625 -23.875 C 3.140625 -25.5 2.515625 -27.503906 2.515625 -29.890625 C 2.515625 -32.234375 3.117188 -34.285156 4.328125 -36.046875 C 5.546875 -37.804688 7.238281 -39.15625 9.40625 -40.09375 C 11.570312 -41.03125 14.046875 -41.5 16.828125 -41.5 C 19.796875 -41.5 22.453125 -40.96875 24.796875 -39.90625 C 27.140625 -38.851562 28.960938 -37.378906 30.265625 -35.484375 C 31.578125 -33.585938 32.234375 -31.390625 32.234375 -28.890625 L 32.234375 -28.3125 C 32.234375 -27.644531 31.898438 -27.3125 31.234375 -27.3125 L 25.078125 -27.3125 C 24.421875 -27.3125 24.09375 -27.503906 24.09375 -27.890625 L 24.09375 -28.484375 C 24.09375 -30.128906 23.414062 -31.523438 22.0625 -32.671875 C 20.71875 -33.828125 18.875 -34.40625 16.53125 -34.40625 C 14.65625 -34.40625 13.207031 -34.015625 12.1875 -33.234375 C 11.175781 -32.453125 10.671875 -31.378906 10.671875 -30.015625 C 10.671875 -29.035156 10.960938 -28.210938 11.546875 -27.546875 C 12.128906 -26.878906 13.015625 -26.269531 14.203125 -25.71875 C 15.398438 -25.175781 17.25 -24.476562 19.75 -23.625 C 22.488281 -22.601562 24.65625 -21.710938 26.25 -20.953125 C 27.851562 -20.191406 29.289062 -19.03125 30.5625 -17.46875 C 31.832031 -15.90625 32.46875 -13.890625 32.46875 -11.421875 C 32.46875 -9.046875 31.851562 -6.957031 30.625 -5.15625 C 29.394531 -3.363281 27.65625 -1.976562 25.40625 -1 C 23.15625 -0.0195312 20.507812 0.46875 17.46875 0.46875 Z M 17.46875 0.46875 "/></g></g></g><g fill="#e1ad4e" fill-opacity="1"><g transform="translate(115.221615, 275.123887)"><g><path d="M 16.296875 0.46875 C 13.171875 0.46875 10.460938 -0.3125 8.171875 -1.875 C 5.890625 -3.4375 4.257812 -5.585938 3.28125 -8.328125 C 2.613281 -10.273438 2.28125 -12.578125 2.28125 -15.234375 C 2.28125 -17.859375 2.613281 -20.125 3.28125 -22.03125 C 4.21875 -24.6875 5.835938 -26.773438 8.140625 -28.296875 C 10.453125 -29.828125 13.171875 -30.59375 16.296875 -30.59375 C 19.421875 -30.59375 22.164062 -29.8125 24.53125 -28.25 C 26.894531 -26.6875 28.46875 -24.710938 29.25 -22.328125 C 29.476562 -21.785156 29.632812 -21.179688 29.71875 -20.515625 L 29.71875 -20.390625 C 29.71875 -19.890625 29.421875 -19.578125 28.828125 -19.453125 L 22.6875 -18.515625 L 22.390625 -18.46875 C 21.921875 -18.46875 21.644531 -18.703125 21.5625 -19.171875 L 21.390625 -19.984375 C 21.117188 -21.003906 20.515625 -21.84375 19.578125 -22.5 C 18.640625 -23.164062 17.523438 -23.5 16.234375 -23.5 C 14.984375 -23.5 13.925781 -23.1875 13.0625 -22.5625 C 12.207031 -21.9375 11.601562 -21.078125 11.25 -19.984375 C 10.820312 -18.816406 10.609375 -17.21875 10.609375 -15.1875 C 10.609375 -13.144531 10.800781 -11.539062 11.1875 -10.375 C 11.539062 -9.195312 12.15625 -8.273438 13.03125 -7.609375 C 13.914062 -6.953125 14.984375 -6.625 16.234375 -6.625 C 17.441406 -6.625 18.503906 -6.945312 19.421875 -7.59375 C 20.347656 -8.238281 20.984375 -9.109375 21.328125 -10.203125 L 21.390625 -10.484375 C 21.429688 -10.640625 21.566406 -10.828125 21.796875 -11.046875 C 22.035156 -11.265625 22.289062 -11.351562 22.5625 -11.3125 L 28.71875 -10.375 C 29.03125 -10.289062 29.253906 -10.148438 29.390625 -9.953125 C 29.523438 -9.765625 29.578125 -9.535156 29.546875 -9.265625 C 29.460938 -8.640625 29.363281 -8.1875 29.25 -7.90625 C 28.425781 -5.289062 26.832031 -3.238281 24.46875 -1.75 C 22.101562 -0.269531 19.378906 0.46875 16.296875 0.46875 Z M 16.296875 0.46875 "/></g></g></g><g fill="#e1ad4e" fill-opacity="1"><g transform="translate(146.687719, 275.123887)"><g><path d="M 7.625 -33 C 6.132812 -33 4.921875 -33.457031 3.984375 -34.375 C 3.046875 -35.289062 2.578125 -36.472656 2.578125 -37.921875 C 2.578125 -39.367188 3.046875 -40.550781 3.984375 -41.46875 C 4.921875 -42.382812 6.132812 -42.84375 7.625 -42.84375 C 9.144531 -42.84375 10.363281 -42.390625 11.28125 -41.484375 C 12.195312 -40.585938 12.65625 -39.398438 12.65625 -37.921875 C 12.65625 -36.429688 12.195312 -35.238281 11.28125 -34.34375 C 10.363281 -33.445312 9.144531 -33 7.625 -33 Z M 4.515625 0 C 3.847656 0 3.515625 -0.332031 3.515625 -1 L 3.515625 -29.125 C 3.515625 -29.789062 3.847656 -30.125 4.515625 -30.125 L 10.78125 -30.125 C 11.445312 -30.125 11.78125 -29.789062 11.78125 -29.125 L 11.78125 -1 C 11.78125 -0.332031 11.445312 0 10.78125 0 Z M 4.515625 0 "/></g></g></g><g fill="#e1ad4e" fill-opacity="1"><g transform="translate(161.92271, 275.123887)"><g><path d="M 17.578125 -6.5 C 20.160156 -6.625 22.132812 -7.523438 23.5 -9.203125 C 23.738281 -9.472656 23.992188 -9.609375 24.265625 -9.609375 C 24.492188 -9.609375 24.707031 -9.507812 24.90625 -9.3125 L 28.25 -6.09375 C 28.476562 -5.863281 28.59375 -5.628906 28.59375 -5.390625 C 28.59375 -5.117188 28.515625 -4.882812 28.359375 -4.6875 C 27.078125 -3.082031 25.425781 -1.820312 23.40625 -0.90625 C 21.394531 0.0078125 19.203125 0.46875 16.828125 0.46875 C 13.222656 0.46875 10.238281 -0.445312 7.875 -2.28125 C 5.519531 -4.125 3.929688 -6.644531 3.109375 -9.84375 C 2.640625 -11.5625 2.40625 -13.378906 2.40625 -15.296875 C 2.40625 -17.566406 2.617188 -19.484375 3.046875 -21.046875 C 3.828125 -23.929688 5.398438 -26.253906 7.765625 -28.015625 C 10.128906 -29.773438 12.929688 -30.65625 16.171875 -30.65625 C 20.003906 -30.65625 23.039062 -29.519531 25.28125 -27.25 C 27.53125 -24.988281 28.988281 -21.804688 29.65625 -17.703125 C 29.8125 -16.410156 29.929688 -14.984375 30.015625 -13.421875 C 30.015625 -12.753906 29.679688 -12.421875 29.015625 -12.421875 L 11.015625 -12.421875 C 10.785156 -12.421875 10.671875 -12.304688 10.671875 -12.078125 C 10.785156 -11.253906 10.921875 -10.644531 11.078125 -10.25 C 11.460938 -9.039062 12.234375 -8.113281 13.390625 -7.46875 C 14.546875 -6.820312 15.941406 -6.5 17.578125 -6.5 Z M 16.0625 -23.5 C 14.8125 -23.5 13.765625 -23.195312 12.921875 -22.59375 C 12.078125 -21.988281 11.5 -21.140625 11.1875 -20.046875 C 11 -19.304688 10.882812 -18.816406 10.84375 -18.578125 C 10.800781 -18.347656 10.898438 -18.234375 11.140625 -18.234375 L 21.09375 -18.234375 C 21.289062 -18.234375 21.390625 -18.3125 21.390625 -18.46875 C 21.390625 -18.894531 21.3125 -19.34375 21.15625 -19.8125 C 20.800781 -20.945312 20.191406 -21.84375 19.328125 -22.5 C 18.472656 -23.164062 17.382812 -23.5 16.0625 -23.5 Z M 16.0625 -23.5 "/></g></g></g><g fill="#e1ad4e" fill-opacity="1"><g transform="translate(193.974778, 275.123887)"><g><path d="M 18.75 -30.59375 C 21.875 -30.59375 24.394531 -29.632812 26.3125 -27.71875 C 28.226562 -25.800781 29.1875 -23.203125 29.1875 -19.921875 L 29.1875 -1 C 29.1875 -0.332031 28.851562 0 28.1875 0 L 21.921875 0 C 21.253906 0 20.921875 -0.332031 20.921875 -1 L 20.921875 -18.234375 C 20.921875 -19.796875 20.488281 -21.0625 19.625 -22.03125 C 18.769531 -23.007812 17.617188 -23.5 16.171875 -23.5 C 14.722656 -23.5 13.550781 -23.007812 12.65625 -22.03125 C 11.757812 -21.0625 11.3125 -19.796875 11.3125 -18.234375 L 11.3125 -1 C 11.3125 -0.332031 10.976562 0 10.3125 0 L 4.046875 0 C 3.378906 0 3.046875 -0.332031 3.046875 -1 L 3.046875 -29.125 C 3.046875 -29.789062 3.378906 -30.125 4.046875 -30.125 L 10.3125 -30.125 C 10.976562 -30.125 11.3125 -29.789062 11.3125 -29.125 L 11.3125 -27.484375 C 11.3125 -27.328125 11.347656 -27.226562 11.421875 -27.1875 C 11.503906 -27.15625 11.582031 -27.195312 11.65625 -27.3125 C 13.257812 -29.5 15.625 -30.59375 18.75 -30.59375 Z M 18.75 -30.59375 "/></g></g></g><g fill="#e1ad4e" fill-opacity="1"><g transform="translate(226.026846, 275.123887)"><g><path d="M 20.34375 -24.5 C 20.34375 -23.832031 20.007812 -23.5 19.34375 -23.5 L 14.0625 -23.5 C 13.832031 -23.5 13.71875 -23.382812 13.71875 -23.15625 L 13.71875 -11.015625 C 13.71875 -9.722656 13.976562 -8.773438 14.5 -8.171875 C 15.03125 -7.566406 15.882812 -7.265625 17.0625 -7.265625 L 18.703125 -7.265625 C 19.359375 -7.265625 19.6875 -6.929688 19.6875 -6.265625 L 19.6875 -1.234375 C 19.6875 -0.609375 19.359375 -0.253906 18.703125 -0.171875 C 17.210938 -0.0976562 16.132812 -0.0625 15.46875 -0.0625 C 12.226562 -0.0625 9.804688 -0.609375 8.203125 -1.703125 C 6.597656 -2.796875 5.78125 -4.828125 5.75 -7.796875 L 5.75 -23.15625 C 5.75 -23.382812 5.628906 -23.5 5.390625 -23.5 L 2.40625 -23.5 C 1.738281 -23.5 1.40625 -23.832031 1.40625 -24.5 L 1.40625 -29.125 C 1.40625 -29.789062 1.738281 -30.125 2.40625 -30.125 L 5.390625 -30.125 C 5.628906 -30.125 5.75 -30.242188 5.75 -30.484375 L 5.75 -37.09375 C 5.75 -37.757812 6.078125 -38.09375 6.734375 -38.09375 L 12.71875 -38.09375 C 13.382812 -38.09375 13.71875 -37.757812 13.71875 -37.09375 L 13.71875 -30.484375 C 13.71875 -30.242188 13.832031 -30.125 14.0625 -30.125 L 19.34375 -30.125 C 20.007812 -30.125 20.34375 -29.789062 20.34375 -29.125 Z M 20.34375 -24.5 "/></g></g></g><g fill="#e1ad4e" fill-opacity="1"><g transform="translate(248.293368, 275.123887)"><g><path d="M 7.625 -33 C 6.132812 -33 4.921875 -33.457031 3.984375 -34.375 C 3.046875 -35.289062 2.578125 -36.472656 2.578125 -37.921875 C 2.578125 -39.367188 3.046875 -40.550781 3.984375 -41.46875 C 4.921875 -42.382812 6.132812 -42.84375 7.625 -42.84375 C 9.144531 -42.84375 10.363281 -42.390625 11.28125 -41.484375 C 12.195312 -40.585938 12.65625 -39.398438 12.65625 -37.921875 C 12.65625 -36.429688 12.195312 -35.238281 11.28125 -34.34375 C 10.363281 -33.445312 9.144531 -33 7.625 -33 Z M 4.515625 0 C 3.847656 0 3.515625 -0.332031 3.515625 -1 L 3.515625 -29.125 C 3.515625 -29.789062 3.847656 -30.125 4.515625 -30.125 L 10.78125 -30.125 C 11.445312 -30.125 11.78125 -29.789062 11.78125 -29.125 L 11.78125 -1 C 11.78125 -0.332031 11.445312 0 10.78125 0 Z M 4.515625 0 "/></g></g></g><g fill="#e1ad4e" fill-opacity="1"><g transform="translate(263.528359, 275.123887)"><g><path d="M 15.125 -30.59375 C 17.664062 -30.59375 19.929688 -30.148438 21.921875 -29.265625 C 23.910156 -28.390625 25.460938 -27.191406 26.578125 -25.671875 C 27.691406 -24.148438 28.25 -22.453125 28.25 -20.578125 L 28.25 -1 C 28.25 -0.332031 27.914062 0 27.25 0 L 20.984375 0 C 20.316406 0 19.984375 -0.332031 19.984375 -1 L 19.984375 -2.40625 C 19.984375 -2.5625 19.941406 -2.648438 19.859375 -2.671875 C 19.785156 -2.691406 19.691406 -2.640625 19.578125 -2.515625 C 17.773438 -0.523438 15.097656 0.46875 11.546875 0.46875 C 8.535156 0.46875 6.113281 -0.269531 4.28125 -1.75 C 2.445312 -3.238281 1.53125 -5.429688 1.53125 -8.328125 C 1.53125 -11.328125 2.582031 -13.65625 4.6875 -15.3125 C 6.800781 -16.976562 9.8125 -17.8125 13.71875 -17.8125 L 19.640625 -17.8125 C 19.867188 -17.8125 19.984375 -17.929688 19.984375 -18.171875 L 19.984375 -19.40625 C 19.984375 -20.6875 19.582031 -21.6875 18.78125 -22.40625 C 17.976562 -23.132812 16.816406 -23.5 15.296875 -23.5 C 14.117188 -23.5 13.148438 -23.300781 12.390625 -22.90625 C 11.628906 -22.519531 11.113281 -21.976562 10.84375 -21.28125 C 10.601562 -20.726562 10.210938 -20.472656 9.671875 -20.515625 L 3.171875 -21.328125 C 2.859375 -21.367188 2.613281 -21.457031 2.4375 -21.59375 C 2.257812 -21.726562 2.191406 -21.914062 2.234375 -22.15625 C 2.421875 -23.757812 3.09375 -25.203125 4.25 -26.484375 C 5.40625 -27.773438 6.925781 -28.78125 8.8125 -29.5 C 10.707031 -30.226562 12.8125 -30.59375 15.125 -30.59375 Z M 13.953125 -5.6875 C 15.628906 -5.6875 17.050781 -6.132812 18.21875 -7.03125 C 19.394531 -7.925781 19.984375 -9.078125 19.984375 -10.484375 L 19.984375 -12.546875 C 19.984375 -12.773438 19.867188 -12.890625 19.640625 -12.890625 L 15.46875 -12.890625 C 13.707031 -12.890625 12.316406 -12.554688 11.296875 -11.890625 C 10.285156 -11.234375 9.78125 -10.296875 9.78125 -9.078125 C 9.78125 -8.023438 10.160156 -7.195312 10.921875 -6.59375 C 11.691406 -5.988281 12.703125 -5.6875 13.953125 -5.6875 Z M 13.953125 -5.6875 "/></g></g></g><g fill="#94959a" fill-opacity="1"><g transform="translate(129.930478, 320.177558)"><g><path d="M 2.984375 0 C 2.617188 0 2.4375 -0.175781 2.4375 -0.53125 L 2.4375 -22.90625 C 2.4375 -23.257812 2.617188 -23.4375 2.984375 -23.4375 L 5.796875 -23.4375 C 6.148438 -23.4375 6.328125 -23.257812 6.328125 -22.90625 L 6.328125 -3.546875 C 6.328125 -3.410156 6.394531 -3.34375 6.53125 -3.34375 L 17.578125 -3.34375 C 17.929688 -3.34375 18.109375 -3.164062 18.109375 -2.8125 L 18.109375 -0.53125 C 18.109375 -0.175781 17.929688 0 17.578125 0 Z M 2.984375 0 "/></g></g></g><g fill="#94959a" fill-opacity="1"><g transform="translate(150.714449, 320.177558)"><g><path d="M 4.28125 -19.25 C 3.550781 -19.25 2.953125 -19.476562 2.484375 -19.9375 C 2.015625 -20.394531 1.78125 -20.984375 1.78125 -21.703125 C 1.78125 -22.410156 2.015625 -22.988281 2.484375 -23.4375 C 2.953125 -23.882812 3.550781 -24.109375 4.28125 -24.109375 C 5.019531 -24.109375 5.617188 -23.882812 6.078125 -23.4375 C 6.535156 -22.988281 6.765625 -22.410156 6.765625 -21.703125 C 6.765625 -20.984375 6.535156 -20.394531 6.078125 -19.9375 C 5.617188 -19.476562 5.019531 -19.25 4.28125 -19.25 Z M 2.875 0 C 2.519531 0 2.34375 -0.175781 2.34375 -0.53125 L 2.34375 -16.578125 C 2.34375 -16.929688 2.519531 -17.109375 2.875 -17.109375 L 5.6875 -17.109375 C 6.050781 -17.109375 6.234375 -16.929688 6.234375 -16.578125 L 6.234375 -0.53125 C 6.234375 -0.175781 6.050781 0 5.6875 0 Z M 2.875 0 "/></g></g></g><g fill="#94959a" fill-opacity="1"><g transform="translate(160.922797, 320.177558)"><g><path d="M 16.515625 -12.6875 C 16.890625 -11.550781 17.078125 -10.191406 17.078125 -8.609375 C 17.078125 -7.066406 16.875 -5.671875 16.46875 -4.421875 C 15.976562 -2.972656 15.175781 -1.828125 14.0625 -0.984375 C 12.945312 -0.148438 11.609375 0.265625 10.046875 0.265625 C 8.460938 0.265625 7.191406 -0.3125 6.234375 -1.46875 C 6.179688 -1.5625 6.128906 -1.597656 6.078125 -1.578125 C 6.023438 -1.554688 6 -1.5 6 -1.40625 L 6 -0.53125 C 6 -0.175781 5.816406 0 5.453125 0 L 2.640625 0 C 2.285156 0 2.109375 -0.175781 2.109375 -0.53125 L 2.109375 -22.90625 C 2.109375 -23.257812 2.285156 -23.4375 2.640625 -23.4375 L 5.453125 -23.4375 C 5.816406 -23.4375 6 -23.257812 6 -22.90625 L 6 -15.796875 C 6 -15.710938 6.023438 -15.664062 6.078125 -15.65625 C 6.128906 -15.644531 6.179688 -15.671875 6.234375 -15.734375 C 7.210938 -16.828125 8.484375 -17.375 10.046875 -17.375 C 11.671875 -17.375 13.03125 -16.960938 14.125 -16.140625 C 15.21875 -15.316406 16.015625 -14.164062 16.515625 -12.6875 Z M 12.25 -4.71875 C 12.789062 -5.65625 13.0625 -6.925781 13.0625 -8.53125 C 13.0625 -10.28125 12.738281 -11.644531 12.09375 -12.625 C 11.46875 -13.5625 10.570312 -14.03125 9.40625 -14.03125 C 8.332031 -14.03125 7.492188 -13.539062 6.890625 -12.5625 C 6.335938 -11.644531 6.0625 -10.316406 6.0625 -8.578125 C 6.0625 -6.859375 6.316406 -5.5625 6.828125 -4.6875 C 7.453125 -3.632812 8.320312 -3.109375 9.4375 -3.109375 C 10.738281 -3.109375 11.675781 -3.644531 12.25 -4.71875 Z M 12.25 -4.71875 "/></g></g></g><g fill="#94959a" fill-opacity="1"><g transform="translate(181.037432, 320.177558)"><g><path d="M 10.046875 -17.3125 C 10.691406 -17.3125 11.28125 -17.1875 11.8125 -16.9375 C 12.082031 -16.8125 12.1875 -16.59375 12.125 -16.28125 L 11.578125 -13.5 C 11.554688 -13.3125 11.492188 -13.195312 11.390625 -13.15625 C 11.296875 -13.113281 11.148438 -13.113281 10.953125 -13.15625 C 10.679688 -13.25 10.320312 -13.296875 9.875 -13.296875 C 9.601562 -13.296875 9.390625 -13.285156 9.234375 -13.265625 C 8.296875 -13.210938 7.515625 -12.878906 6.890625 -12.265625 C 6.265625 -11.648438 5.953125 -10.851562 5.953125 -9.875 L 5.953125 -0.53125 C 5.953125 -0.175781 5.773438 0 5.421875 0 L 2.609375 0 C 2.253906 0 2.078125 -0.175781 2.078125 -0.53125 L 2.078125 -16.578125 C 2.078125 -16.929688 2.253906 -17.109375 2.609375 -17.109375 L 5.421875 -17.109375 C 5.773438 -17.109375 5.953125 -16.929688 5.953125 -16.578125 L 5.953125 -15.265625 C 5.953125 -15.179688 5.972656 -15.125 6.015625 -15.09375 C 6.066406 -15.070312 6.113281 -15.109375 6.15625 -15.203125 C 7.09375 -16.609375 8.390625 -17.3125 10.046875 -17.3125 Z M 10.046875 -17.3125 "/></g></g></g><g fill="#94959a" fill-opacity="1"><g transform="translate(195.295311, 320.177558)"><g><path d="M 8.609375 -17.375 C 10.015625 -17.375 11.257812 -17.128906 12.34375 -16.640625 C 13.425781 -16.148438 14.253906 -15.472656 14.828125 -14.609375 C 15.410156 -13.753906 15.703125 -12.78125 15.703125 -11.6875 L 15.703125 -0.53125 C 15.703125 -0.175781 15.523438 0 15.171875 0 L 12.359375 0 C 11.992188 0 11.8125 -0.175781 11.8125 -0.53125 L 11.8125 -1.375 C 11.8125 -1.457031 11.789062 -1.503906 11.75 -1.515625 C 11.707031 -1.535156 11.648438 -1.519531 11.578125 -1.46875 C 10.378906 -0.3125 8.773438 0.265625 6.765625 0.265625 C 5.109375 0.265625 3.75 -0.15625 2.6875 -1 C 1.632812 -1.851562 1.109375 -3.113281 1.109375 -4.78125 C 1.109375 -6.53125 1.710938 -7.890625 2.921875 -8.859375 C 4.140625 -9.828125 5.851562 -10.3125 8.0625 -10.3125 L 11.625 -10.3125 C 11.75 -10.3125 11.8125 -10.378906 11.8125 -10.515625 L 11.8125 -11.28125 C 11.8125 -12.15625 11.550781 -12.832031 11.03125 -13.3125 C 10.507812 -13.789062 9.734375 -14.03125 8.703125 -14.03125 C 7.921875 -14.03125 7.273438 -13.890625 6.765625 -13.609375 C 6.253906 -13.328125 5.90625 -12.941406 5.71875 -12.453125 C 5.632812 -12.140625 5.4375 -11.992188 5.125 -12.015625 L 2.109375 -12.390625 C 1.929688 -12.410156 1.796875 -12.457031 1.703125 -12.53125 C 1.617188 -12.613281 1.585938 -12.710938 1.609375 -12.828125 C 1.804688 -14.160156 2.546875 -15.25 3.828125 -16.09375 C 5.117188 -16.945312 6.710938 -17.375 8.609375 -17.375 Z M 7.828125 -2.8125 C 8.921875 -2.8125 9.859375 -3.097656 10.640625 -3.671875 C 11.421875 -4.253906 11.8125 -4.992188 11.8125 -5.890625 L 11.8125 -7.4375 C 11.8125 -7.570312 11.75 -7.640625 11.625 -7.640625 L 8.84375 -7.640625 C 7.65625 -7.640625 6.710938 -7.414062 6.015625 -6.96875 C 5.328125 -6.519531 4.984375 -5.882812 4.984375 -5.0625 C 4.984375 -4.34375 5.25 -3.785156 5.78125 -3.390625 C 6.320312 -3.003906 7.003906 -2.8125 7.828125 -2.8125 Z M 7.828125 -2.8125 "/></g></g></g><g fill="#94959a" fill-opacity="1"><g transform="translate(214.439393, 320.177558)"><g><path d="M 10.046875 -17.3125 C 10.691406 -17.3125 11.28125 -17.1875 11.8125 -16.9375 C 12.082031 -16.8125 12.1875 -16.59375 12.125 -16.28125 L 11.578125 -13.5 C 11.554688 -13.3125 11.492188 -13.195312 11.390625 -13.15625 C 11.296875 -13.113281 11.148438 -13.113281 10.953125 -13.15625 C 10.679688 -13.25 10.320312 -13.296875 9.875 -13.296875 C 9.601562 -13.296875 9.390625 -13.285156 9.234375 -13.265625 C 8.296875 -13.210938 7.515625 -12.878906 6.890625 -12.265625 C 6.265625 -11.648438 5.953125 -10.851562 5.953125 -9.875 L 5.953125 -0.53125 C 5.953125 -0.175781 5.773438 0 5.421875 0 L 2.609375 0 C 2.253906 0 2.078125 -0.175781 2.078125 -0.53125 L 2.078125 -16.578125 C 2.078125 -16.929688 2.253906 -17.109375 2.609375 -17.109375 L 5.421875 -17.109375 C 5.773438 -17.109375 5.953125 -16.929688 5.953125 -16.578125 L 5.953125 -15.265625 C 5.953125 -15.179688 5.972656 -15.125 6.015625 -15.09375 C 6.066406 -15.070312 6.113281 -15.109375 6.15625 -15.203125 C 7.09375 -16.609375 8.390625 -17.3125 10.046875 -17.3125 Z M 10.046875 -17.3125 "/></g></g></g><g fill="#94959a" fill-opacity="1"><g transform="translate(228.697271, 320.177558)"><g><path d="M 1.734375 6.65625 C 1.578125 6.65625 1.5 6.476562 1.5 6.125 L 1.5 3.984375 C 1.5 3.628906 1.578125 3.453125 1.734375 3.453125 L 1.9375 3.453125 C 2.851562 3.453125 3.566406 3.367188 4.078125 3.203125 C 4.597656 3.035156 5.019531 2.71875 5.34375 2.25 C 5.664062 1.78125 5.960938 1.078125 6.234375 0.140625 C 6.273438 0.0234375 6.273438 -0.0664062 6.234375 -0.140625 L 0.765625 -16.515625 C 0.742188 -16.578125 0.734375 -16.65625 0.734375 -16.75 C 0.734375 -16.988281 0.890625 -17.109375 1.203125 -17.109375 L 4.21875 -17.109375 C 4.53125 -17.109375 4.734375 -16.960938 4.828125 -16.671875 L 8.109375 -5.59375 C 8.148438 -5.5 8.195312 -5.453125 8.25 -5.453125 C 8.3125 -5.453125 8.351562 -5.5 8.375 -5.59375 L 11.546875 -16.671875 C 11.640625 -16.960938 11.84375 -17.109375 12.15625 -17.109375 L 15.171875 -17.109375 C 15.367188 -17.109375 15.503906 -17.054688 15.578125 -16.953125 C 15.660156 -16.859375 15.671875 -16.710938 15.609375 -16.515625 L 9.75 0.9375 C 9.1875 2.519531 8.632812 3.703125 8.09375 4.484375 C 7.5625 5.265625 6.832031 5.820312 5.90625 6.15625 C 4.976562 6.488281 3.664062 6.65625 1.96875 6.65625 Z M 1.734375 6.65625 "/></g></g></g></svg>